<svg width="853" height="322" viewBox="0 0 853 322" fill="none" xmlns="http://www.w3.org/2000/svg">
<rect y="55" width="46" height="40" fill="#5984C1"/>
<path d="M191.086 188.801H238.083C237.457 202.408 233.787 214.403 227.073 224.788C220.359 235.172 211.049 243.273 199.143 249.092C187.327 254.821 173.362 257.686 157.249 257.686C144.179 257.686 132.497 255.492 122.202 251.106C111.997 246.72 103.314 240.409 96.1523 232.173C89.0804 223.937 83.6646 213.956 79.9048 202.229C76.2345 190.502 74.3994 177.298 74.3994 162.617V152.009C74.3994 137.328 76.3241 124.124 80.1733 112.397C84.1121 100.581 89.6623 90.555 96.8237 82.3193C104.075 73.9941 112.758 67.6383 122.874 63.252C132.989 58.8656 144.224 56.6724 156.577 56.6724C173.586 56.6724 187.953 59.716 199.68 65.8032C211.407 71.8905 220.493 80.2604 226.938 90.9131C233.384 101.476 237.188 113.516 238.352 127.034H191.355C191.176 119.693 189.923 113.561 187.595 108.638C185.268 103.625 181.597 99.8649 176.584 97.3584C171.571 94.8519 164.902 93.5986 156.577 93.5986C150.758 93.5986 145.701 94.6729 141.404 96.8213C137.107 98.9697 133.526 102.371 130.662 107.026C127.797 111.681 125.649 117.724 124.216 125.154C122.874 132.494 122.202 141.357 122.202 151.741V162.617C122.202 173.001 122.829 181.864 124.082 189.204C125.335 196.545 127.349 202.542 130.125 207.197C132.9 211.852 136.48 215.299 140.867 217.537C145.343 219.685 150.803 220.759 157.249 220.759C164.41 220.759 170.452 219.64 175.376 217.402C180.299 215.075 184.104 211.584 186.79 206.929C189.475 202.184 190.907 196.142 191.086 188.801ZM425.803 153.352V161.274C425.803 176.224 423.7 189.652 419.492 201.558C415.374 213.374 409.511 223.49 401.902 231.904C394.293 240.229 385.296 246.63 374.912 251.106C364.528 255.492 353.07 257.686 340.537 257.686C327.915 257.686 316.367 255.492 305.894 251.106C295.509 246.63 286.468 240.229 278.77 231.904C271.16 223.49 265.252 213.374 261.045 201.558C256.927 189.652 254.868 176.224 254.868 161.274V153.352C254.868 138.403 256.927 124.975 261.045 113.069C265.252 101.163 271.116 91.0474 278.635 82.7222C286.244 74.3075 295.241 67.9069 305.625 63.5205C316.099 59.0446 327.646 56.8066 340.269 56.8066C352.801 56.8066 364.259 59.0446 374.644 63.5205C385.117 67.9069 394.159 74.3075 401.768 82.7222C409.377 91.0474 415.285 101.163 419.492 113.069C423.7 124.975 425.803 138.403 425.803 153.352ZM378 161.274V153.083C378 143.416 377.15 134.911 375.449 127.571C373.838 120.141 371.421 113.919 368.198 108.906C364.976 103.893 360.992 100.133 356.248 97.627C351.593 95.0309 346.266 93.7329 340.269 93.7329C334.002 93.7329 328.542 95.0309 323.887 97.627C319.232 100.133 315.338 103.893 312.205 108.906C309.071 113.919 306.699 120.141 305.088 127.571C303.566 134.911 302.805 143.416 302.805 153.083V161.274C302.805 170.853 303.566 179.357 305.088 186.787C306.699 194.128 309.071 200.349 312.205 205.452C315.427 210.554 319.366 214.403 324.021 217C328.765 219.596 334.271 220.894 340.537 220.894C346.535 220.894 351.861 219.596 356.516 217C361.171 214.403 365.065 210.554 368.198 205.452C371.421 200.349 373.838 194.128 375.449 186.787C377.15 179.357 378 170.853 378 161.274ZM473.606 59.4922H512.009L555.649 195.515L599.29 59.4922H637.693L571.226 255H540.073L473.606 59.4922ZM450.242 59.4922H489.988L497.373 209.346V255H450.242V59.4922ZM621.311 59.4922H661.191V255H613.926V209.346L621.311 59.4922ZM769.419 188.667H720.811V152.278H769.419C776.043 152.278 781.414 151.159 785.532 148.921C789.65 146.683 792.649 143.595 794.529 139.656C796.498 135.627 797.483 131.107 797.483 126.094C797.483 120.723 796.498 115.754 794.529 111.189C792.649 106.624 789.65 102.953 785.532 100.178C781.414 97.3136 776.043 95.8813 769.419 95.8813H738.535V255H691.404V59.4922H769.419C785.085 59.4922 798.557 62.3568 809.836 68.0859C821.205 73.8151 829.933 81.6927 836.021 91.7188C842.108 101.655 845.151 113.024 845.151 125.825C845.151 138.447 842.108 149.458 836.021 158.857C829.933 168.257 821.205 175.597 809.836 180.879C798.557 186.071 785.085 188.667 769.419 188.667Z" fill="#A23A87"/>
<rect x="287" y="81" width="99" height="152" fill="#A23A87"/>
<path d="M277.58 221.625H408.696V244.038H277.58V221.625Z" fill="black"/>
<path d="M284.584 168.85L283 159.7C283 159.7 272.698 154.875 274.107 144.512C274.863 138.987 282.07 134.125 289.321 134.95C289.321 134.95 289.06 124.962 297.212 120.125C301.658 117.5 310.653 115.325 319.386 119.025C319.386 119.025 323.324 108.375 339.352 107.925C355.366 107.475 361.236 114.475 361.236 114.475C361.236 114.475 366.555 105.2 384.225 105.237C400.514 105.262 412.023 115.637 410.919 131.375C410.134 142.412 399.207 151.975 384.792 153.075C368.226 154.35 357.037 144.737 357.037 144.737C357.037 144.737 352.91 153.487 337.027 153.375C323.92 153.287 317.323 146.5 317.323 146.5C317.323 146.5 309.68 158.412 296.224 151.025C296.224 151.025 292.315 158.112 287.04 160.137L284.584 168.85Z" fill="#EBF9FD"/>
<path d="M297.11 216.625L294.916 158.375C294.895 157.742 294.587 157.14 294.057 156.699C293.528 156.258 292.82 156.011 292.083 156.013H277.086C275.561 156.013 274.296 157.063 274.253 158.375L271.695 226.538L297.11 216.625Z" fill="#ED6C30"/>
<path d="M419.914 193.9C418.984 193.425 417.836 193.413 416.892 193.863L371.177 215.7V196.163C371.177 195.238 370.61 194.375 369.665 193.9C368.75 193.425 367.587 193.413 366.643 193.863L320.928 215.7V196.163C320.928 195.238 320.346 194.375 319.416 193.9C318.501 193.425 317.338 193.413 316.394 193.863L266.159 217.863C265.186 218.325 264.59 219.2 264.59 220.15V265H421.411V196.15C421.411 195.238 420.844 194.375 419.914 193.9ZM304.914 238.313H285.864V230.6H304.914V238.313ZM352.896 238.313H333.846V230.6H352.896V238.313ZM400.864 238.313H381.813V230.6H400.864V238.313Z" fill="white"/>
<rect y="115" width="46" height="140" fill="#384696"/>
</svg>
