<svg width="914" height="322" viewBox="0 0 914 322" fill="none" xmlns="http://www.w3.org/2000/svg">
<rect y="115" width="47" height="140" fill="#384696"/>
<rect y="56" width="47" height="44" fill="#5984C1"/>
<path d="M208.086 188.801H255.083C254.457 202.408 250.787 214.403 244.073 224.788C237.359 235.172 228.049 243.273 216.143 249.092C204.327 254.821 190.362 257.686 174.249 257.686C161.179 257.686 149.497 255.492 139.202 251.106C128.997 246.72 120.314 240.409 113.152 232.173C106.08 223.937 100.665 213.956 96.9048 202.229C93.2345 190.502 91.3994 177.298 91.3994 162.617V152.009C91.3994 137.328 93.3241 124.124 97.1733 112.397C101.112 100.581 106.662 90.555 113.824 82.3193C121.075 73.9941 129.758 67.6383 139.874 63.252C149.989 58.8656 161.224 56.6724 173.577 56.6724C190.586 56.6724 204.953 59.716 216.68 65.8032C228.407 71.8905 237.493 80.2604 243.938 90.9131C250.384 101.476 254.188 113.516 255.352 127.034H208.355C208.176 119.693 206.923 113.561 204.595 108.638C202.268 103.625 198.597 99.8649 193.584 97.3584C188.571 94.8519 181.902 93.5986 173.577 93.5986C167.758 93.5986 162.701 94.6729 158.404 96.8213C154.107 98.9697 150.526 102.371 147.662 107.026C144.797 111.681 142.649 117.724 141.216 125.154C139.874 132.494 139.202 141.357 139.202 151.741V162.617C139.202 173.001 139.829 181.864 141.082 189.204C142.335 196.545 144.349 202.542 147.125 207.197C149.9 211.852 153.48 215.299 157.867 217.537C162.343 219.685 167.803 220.759 174.249 220.759C181.41 220.759 187.452 219.64 192.376 217.402C197.299 215.075 201.104 211.584 203.79 206.929C206.475 202.184 207.907 196.142 208.086 188.801ZM456.553 153.352V161.274C456.553 176.224 454.45 189.652 450.242 201.558C446.124 213.374 440.261 223.49 432.652 231.904C425.043 240.229 416.046 246.63 405.662 251.106C395.278 255.492 383.82 257.686 371.287 257.686C358.665 257.686 347.117 255.492 336.644 251.106C326.259 246.63 317.218 240.229 309.52 231.904C301.91 223.49 296.002 213.374 291.795 201.558C287.677 189.652 285.618 176.224 285.618 161.274V153.352C285.618 138.403 287.677 124.975 291.795 113.069C296.002 101.163 301.866 91.0474 309.385 82.7222C316.994 74.3075 325.991 67.9069 336.375 63.5205C346.849 59.0446 358.396 56.8066 371.019 56.8066C383.551 56.8066 395.009 59.0446 405.394 63.5205C415.867 67.9069 424.909 74.3075 432.518 82.7222C440.127 91.0474 446.035 101.163 450.242 113.069C454.45 124.975 456.553 138.403 456.553 153.352ZM408.75 161.274V153.083C408.75 143.416 407.9 134.911 406.199 127.571C404.588 120.141 402.171 113.919 398.948 108.906C395.726 103.893 391.742 100.133 386.998 97.627C382.343 95.0309 377.016 93.7329 371.019 93.7329C364.752 93.7329 359.292 95.0309 354.637 97.627C349.982 100.133 346.088 103.893 342.955 108.906C339.821 113.919 337.449 120.141 335.838 127.571C334.316 134.911 333.555 143.416 333.555 153.083V161.274C333.555 170.853 334.316 179.357 335.838 186.787C337.449 194.128 339.821 200.349 342.955 205.452C346.177 210.554 350.116 214.403 354.771 217C359.515 219.596 365.021 220.894 371.287 220.894C377.285 220.894 382.611 219.596 387.266 217C391.921 214.403 395.815 210.554 398.948 205.452C402.171 200.349 404.588 194.128 406.199 186.787C407.9 179.357 408.75 170.853 408.75 161.274ZM518.106 59.4922H556.509L600.149 195.515L643.79 59.4922H682.193L615.726 255H584.573L518.106 59.4922ZM494.742 59.4922H534.488L541.873 209.346V255H494.742V59.4922ZM665.811 59.4922H705.691V255H658.426V209.346L665.811 59.4922ZM827.669 188.667H779.061V152.278H827.669C834.293 152.278 839.664 151.159 843.782 148.921C847.9 146.683 850.899 143.595 852.779 139.656C854.748 135.627 855.733 131.107 855.733 126.094C855.733 120.723 854.748 115.754 852.779 111.189C850.899 106.624 847.9 102.953 843.782 100.178C839.664 97.3136 834.293 95.8813 827.669 95.8813H796.785V255H749.654V59.4922H827.669C843.335 59.4922 856.807 62.3568 868.086 68.0859C879.455 73.8151 888.183 81.6927 894.271 91.7188C900.358 101.655 903.401 113.024 903.401 125.825C903.401 138.447 900.358 149.458 894.271 158.857C888.183 168.257 879.455 175.597 868.086 180.879C856.807 186.071 843.335 188.667 827.669 188.667Z" fill="#A23A87"/>
<rect x="323" y="87" width="92" height="136" fill="#A23A87"/>
<path d="M303.58 216.625H434.696V239.038H303.58V216.625Z" fill="black"/>
<path d="M310.584 163.85L309 154.7C309 154.7 298.698 149.875 300.107 139.512C300.863 133.987 308.07 129.125 315.321 129.95C315.321 129.95 315.06 119.962 323.212 115.125C327.658 112.5 336.653 110.325 345.386 114.025C345.386 114.025 349.324 103.375 365.352 102.925C381.366 102.475 387.236 109.475 387.236 109.475C387.236 109.475 392.555 100.2 410.225 100.237C426.514 100.262 438.023 110.637 436.919 126.375C436.134 137.412 425.207 146.975 410.792 148.075C394.226 149.35 383.037 139.737 383.037 139.737C383.037 139.737 378.91 148.487 363.027 148.375C349.92 148.287 343.323 141.5 343.323 141.5C343.323 141.5 335.68 153.412 322.224 146.025C322.224 146.025 318.315 153.112 313.04 155.137L310.584 163.85Z" fill="#EBF9FD"/>
<path d="M323.11 211.625L320.916 153.375C320.895 152.742 320.587 152.14 320.057 151.699C319.528 151.258 318.82 151.011 318.083 151.013H303.086C301.561 151.013 300.296 152.063 300.253 153.375L297.695 221.538L323.11 211.625Z" fill="#ED6C30"/>
<path d="M445.914 188.9C444.984 188.425 443.836 188.413 442.892 188.863L397.177 210.7V191.163C397.177 190.238 396.61 189.375 395.665 188.9C394.75 188.425 393.587 188.413 392.643 188.863L346.928 210.7V191.163C346.928 190.238 346.346 189.375 345.416 188.9C344.501 188.425 343.338 188.413 342.394 188.863L292.159 212.863C291.186 213.325 290.59 214.2 290.59 215.15V260H447.411V191.15C447.411 190.238 446.844 189.375 445.914 188.9ZM330.914 233.313H311.864V225.6H330.914V233.313ZM378.896 233.313H359.846V225.6H378.896V233.313ZM426.864 233.313H407.813V225.6H426.864V233.313Z" fill="white"/>
</svg>
