<svg width="200" height="200" viewBox="0 0 500 500" fill="none" xmlns="http://www.w3.org/2000/svg">
        <g clip-path="url(#clip0_19_12)">
        <!-- <path d="M500 0H0V500H500V0Z" fill="white"/> -->
        
          <path d="M327.46 406.673H74.403C72.293 406.673 70.582 404.962 70.582 402.852V292.731C70.582 290.621 72.293 288.91 74.403 288.91H327.46C329.57 288.91 331.281 290.621 331.281 292.731V402.853C331.281 404.962 329.57 406.673 327.46 406.673Z" fill="#2F4A7F"/>
          <path d="M322.403 404.931H80.806V411.896H322.403V404.931Z" fill="#476B9E"/>
        <path d="M236.479 420.353H171.073C169.033 420.353 167.379 418.699 167.379 416.659V400.949C167.379 398.909 169.033 397.255 171.073 397.255H236.479C238.519 397.255 240.173 398.909 240.173 400.949V416.659C240.173 418.7 238.519 420.353 236.479 420.353Z" fill="#162E4C"/>
        <path d="M167.38 415.313H162.724C160.373 415.313 158.461 413.401 158.461 411.05V406.673H159.461V411.05C159.461 412.849 160.925 414.313 162.724 414.313H167.38V415.313Z" fill="#162E4C"/>
        <path d="M240.173 415.473V414.473C241.596 414.473 242.754 413.315 242.754 411.892V406.673H243.754V411.892C243.754 413.866 242.147 415.473 240.173 415.473Z" fill="#162E4C"/>
        <path d="M328.341 390.765H73.875V391.765H328.341V390.765Z" fill="#486C9E"/>
        <path d="M74.375 292.202H73.375V391.265H74.375V292.202Z" fill="#486C9E"/>
        <path d="M81.071 292.202H80.071V391.265H81.071V292.202Z" fill="#486C9E"/>
        <path d="M87.767 292.202H86.767V391.265H87.767V292.202Z" fill="#486C9E"/>
        <path d="M94.464 292.202H93.464V391.265H94.464V292.202Z" fill="#486C9E"/>
        <path d="M101.16 292.202H100.16V391.265H101.16V292.202Z" fill="#486C9E"/>
        <path d="M107.856 292.202H106.856V391.265H107.856V292.202Z" fill="#486C9E"/>
        <path d="M114.553 292.202H113.553V391.265H114.553V292.202Z" fill="#486C9E"/>
        <path d="M121.25 292.202H120.25V391.265H121.25V292.202Z" fill="#486C9E"/>
        <path d="M127.946 292.202H126.946V391.265H127.946V292.202Z" fill="#486C9E"/>
        <path d="M134.642 292.202H133.642V391.265H134.642V292.202Z" fill="#486C9E"/>
        <path d="M141.339 292.202H140.339V391.265H141.339V292.202Z" fill="#486C9E"/>
        <path d="M148.036 292.202H147.036V391.265H148.036V292.202Z" fill="#486C9E"/>
        <path d="M154.732 292.202H153.732V391.265H154.732V292.202Z" fill="#486C9E"/>
        <path d="M161.428 292.202H160.428V391.265H161.428V292.202Z" fill="#486C9E"/>
        <path d="M168.125 292.202H167.125V391.265H168.125V292.202Z" fill="#486C9E"/>
        <path d="M174.821 292.202H173.821V391.265H174.821V292.202Z" fill="#486C9E"/>
        <path d="M181.518 292.202H180.518V391.265H181.518V292.202Z" fill="#486C9E"/>
        <path d="M188.214 292.202H187.214V391.265H188.214V292.202Z" fill="#486C9E"/>
        <path d="M194.911 292.202H193.911V391.265H194.911V292.202Z" fill="#486C9E"/>
        <path d="M201.607 292.202H200.607V391.265H201.607V292.202Z" fill="#486C9E"/>
        <path d="M208.303 292.202H207.303V391.265H208.303V292.202Z" fill="#486C9E"/>
        <path d="M215.001 292.202H214.001V391.265H215.001V292.202Z" fill="#486C9E"/>
        <path d="M221.697 292.202H220.697V391.265H221.697V292.202Z" fill="#486C9E"/>
        <path d="M228.393 292.202H227.393V391.265H228.393V292.202Z" fill="#486C9E"/>
        <path d="M235.089 292.202H234.089V391.265H235.089V292.202Z" fill="#486C9E"/>
        <path d="M241.786 292.202H240.786V391.265H241.786V292.202Z" fill="#486C9E"/>
        <path d="M248.482 292.202H247.482V391.265H248.482V292.202Z" fill="#486C9E"/>
        <path d="M255.179 292.202H254.179V391.265H255.179V292.202Z" fill="#486C9E"/>
        <path d="M261.876 292.202H260.876V391.265H261.876V292.202Z" fill="#486C9E"/>
        <path d="M268.572 292.202H267.572V391.265H268.572V292.202Z" fill="#486C9E"/>
        <path d="M275.268 292.202H274.268V391.265H275.268V292.202Z" fill="#486C9E"/>
        <path d="M281.965 292.202H280.965V391.265H281.965V292.202Z" fill="#486C9E"/>
        <path d="M288.662 292.202H287.662V391.265H288.662V292.202Z" fill="#486C9E"/>
        <path d="M295.358 292.202H294.358V391.265H295.358V292.202Z" fill="#486C9E"/>
        <path d="M302.054 292.202H301.054V391.265H302.054V292.202Z" fill="#486C9E"/>
        <path d="M308.751 292.202H307.751V391.265H308.751V292.202Z" fill="#486C9E"/>
        <path d="M315.447 292.202H314.447V391.265H315.447V292.202Z" fill="#486C9E"/>
        <path d="M322.144 292.202H321.144V391.265H322.144V292.202Z" fill="#486C9E"/>
        <path d="M328.84 292.202H327.84V391.265H328.84V292.202Z" fill="#486C9E"/>
        <path d="M321.7 291.702H80.508V292.702H321.7V291.702Z" fill="#486C9E"/>
        <path d="M321.7 403.175H80.508V404.175H321.7V403.175Z" fill="#486C9E"/>
        <path d="M74.375 298.836H73.375V397.058H74.375V298.836Z" fill="#486C9E"/>
        <path d="M328.84 298.836H327.84V397.058H328.84V298.836Z" fill="#486C9E"/>
        <path d="M69.995 291.619V298.836H73.874V292.727C73.874 292.438 74.11 292.202 74.399 292.202H80.508V288.322H73.291C71.473 288.323 69.995 289.801 69.995 291.619Z" fill="#a5408b"/>
        <path d="M74.375 299.336H69.495V291.619C69.495 289.526 71.198 287.823 73.291 287.823H81.009V292.702H74.4L74.375 299.336ZM70.495 298.336H73.375V292.728C73.375 292.163 73.835 291.703 74.399 291.703H80.008V288.824H73.29C71.748 288.824 70.494 290.078 70.494 291.62L70.495 298.336Z" fill="#a5408b"/>
        <path d="M328.918 288.323H321.701V292.203H327.81C328.1 292.203 328.335 292.439 328.335 292.728V298.837H332.214V291.62C332.214 289.801 330.735 288.323 328.918 288.323Z" fill="#a5408b"/>
        <path d="M332.714 299.336H327.835V292.728L321.201 292.703V287.824H328.918C331.011 287.824 332.714 289.527 332.714 291.62V299.336ZM328.835 298.336H331.714V291.619C331.714 290.077 330.46 288.823 328.918 288.823H322.201V291.702H327.809C328.374 291.702 328.834 292.162 328.834 292.727L328.835 298.336Z" fill="#a5408b"/>
        <path d="M73.874 403.167V397.058H69.995V404.275C69.995 406.093 71.474 407.571 73.291 407.571H80.508V403.692H74.399C74.11 403.692 73.874 403.456 73.874 403.167Z" fill="#a5408b"/>
        <path d="M81.008 408.071H73.29C71.197 408.071 69.494 406.368 69.494 404.275V396.558H74.374V403.167C74.374 403.18 74.386 403.192 74.398 403.192H81.007L81.008 408.071ZM70.495 397.558V404.275C70.495 405.817 71.749 407.071 73.291 407.071H80.009V404.191H74.4C73.835 404.191 73.376 403.731 73.376 403.166V397.557H70.495V397.558Z" fill="#a5408b"/>
        <path d="M328.335 403.167C328.335 403.456 328.1 403.692 327.81 403.692H321.701V407.571H328.918C330.735 407.571 332.214 406.092 332.214 404.275V397.058H328.335V403.167Z" fill="#a5408b"/>
        <path d="M328.918 408.071H321.201V403.191L327.835 403.166V396.557H332.714V404.274C332.714 406.368 331.01 408.071 328.918 408.071ZM322.201 407.071H328.918C330.46 407.071 331.714 405.817 331.714 404.275V397.558H328.835V403.167C328.835 403.732 328.375 404.192 327.81 404.192H322.202V407.071H322.201Z" fill="#a5408b"/>
        <path d="M82.812 399.83H75.796V401.708H82.812V399.83Z" fill="#E8615B"/>
        <path d="M90.829 399.83H83.813V401.708H90.829V399.83Z" fill="#E8615B"/>
        <path d="M83.813 399.83H82.811V401.708H83.813V399.83Z" fill="white"/>
        <path d="M141.667 399.83H134.651V401.708H141.667V399.83Z" fill="#E8615B"/>
        <path d="M149.685 399.83H142.669V401.708H149.685V399.83Z" fill="#E8615B"/>
        <path d="M142.669 399.83H141.667V401.708H142.669V399.83Z" fill="white"/>
        <path d="M200.523 399.83H193.507V401.708H200.523V399.83Z" fill="#E8615B"/>
        <path d="M208.541 399.83H201.525V401.708H208.541V399.83Z" fill="#E8615B"/>
        <path d="M201.524 399.83H200.522V401.708H201.524V399.83Z" fill="white"/>
        <path d="M259.378 399.83H252.362V401.708H259.378V399.83Z" fill="#E8615B"/>
        <path d="M267.396 399.83H260.38V401.708H267.396V399.83Z" fill="#E8615B"/>
        <path d="M260.38 399.83H259.378V401.708H260.38V399.83Z" fill="white"/>
        <path d="M318.234 399.83H311.218V401.708H318.234V399.83Z" fill="#E8615B"/>
        <path d="M326.252 399.83H319.236V401.708H326.252V399.83Z" fill="#E8615B"/>
        <path d="M319.236 399.83H318.234V401.708H319.236V399.83Z" fill="white"/>
        <path d="M416.133 348.003H381.405C379.245 348.003 377.494 349.754 377.494 351.914V369.649C377.494 371.809 379.245 373.56 381.405 373.56H404.456C405.493 373.56 406.488 373.972 407.222 374.706L409.521 377.005C410.255 377.739 411.249 378.151 412.287 378.151H421.463C423.991 378.151 425.855 375.79 425.268 373.331L419.938 351.006C419.517 349.245 417.943 348.003 416.133 348.003Z" fill="white"/>
        <path d="M389.021 344.351L404.783 379.546H416.468L400.705 344.351H389.021Z" fill="#D9EBFF"/>
        <path d="M410.156 344.351H407.017L422.78 379.546H425.918L410.156 344.351Z" fill="#D9EBFF"/>
        <path d="M430.048 370.796L422.35 341.482C420.524 334.597 415.569 331.676 408.058 331.415L343.022 329.152C340.88 329.077 339.104 330.793 339.104 332.936V428.378H428.609V395.283H430.643V375.41C430.643 373.853 430.443 372.302 430.048 370.796ZM421.463 378.15H412.287C411.25 378.15 410.255 377.738 409.521 377.004L407.222 374.705C406.489 373.971 405.494 373.559 404.456 373.559H381.405C379.245 373.559 377.494 371.808 377.494 369.648V351.913C377.494 349.753 379.245 348.002 381.405 348.002H416.133C417.943 348.002 419.517 349.244 419.938 351.005L425.268 373.33C425.855 375.789 423.991 378.15 421.463 378.15Z" fill="#a5408b"/>
        <path d="M339.105 337.485H331.281V398.492H339.105V337.485Z" fill="#162E4C"/>
        <path d="M421.464 380.867H412.287C410.516 380.867 408.852 380.177 407.6 378.926L405.301 376.627C405.076 376.401 404.776 376.277 404.456 376.277H381.404C377.75 376.277 374.776 373.304 374.776 369.649V351.914C374.776 348.259 377.75 345.285 381.404 345.285H416.132C419.212 345.285 421.863 347.378 422.578 350.374L427.908 372.699C428.383 374.685 427.929 376.743 426.664 378.345C425.401 379.948 423.505 380.867 421.464 380.867ZM381.405 346.286C378.301 346.286 375.777 348.811 375.777 351.915V369.65C375.777 372.753 378.301 375.278 381.405 375.278H404.457C405.043 375.278 405.594 375.506 406.009 375.921L408.308 378.22C409.372 379.283 410.785 379.868 412.288 379.868H421.465C423.198 379.868 424.809 379.088 425.882 377.727C426.956 376.367 427.341 374.619 426.939 372.933L421.609 350.608C421.002 348.064 418.751 346.287 416.135 346.287L381.405 346.286Z" fill="#631356"/>
        <path d="M390.806 348.003H387.234V373.561H390.806V348.003Z" fill="#162E4C"/>
        <path d="M349.224 329.369V325.873C349.224 324.613 350.245 323.592 351.505 323.592H393.842C398.036 323.592 401.435 326.992 401.435 331.185L349.224 329.369Z" fill="#a5408b"/>
        <path d="M349.252 328.874L349.217 329.873L401.428 331.691L401.463 330.692L349.252 328.874Z" fill="#631356"/>
        <path d="M429.525 428.379H408.163V406.11H429.525C430.402 406.11 431.113 406.821 431.113 407.698V426.79C431.113 427.668 430.402 428.379 429.525 428.379Z" fill="#162E4C"/>
        <path d="M428.609 394.784H401.982V395.784H428.609V394.784Z" fill="#631356"/>
        <path d="M343.523 329.153H342.523V428.38H343.523V329.153Z" fill="#631356"/>
        <path d="M426.793 403.265C426.432 403.265 426.139 402.972 426.139 402.611V399.146C426.139 398.785 426.432 398.492 426.793 398.492C427.154 398.492 427.447 398.785 427.447 399.146V402.611C427.447 402.972 427.154 403.265 426.793 403.265Z" fill="white"/>
        <path d="M359.955 324.605H353.774V325.605H359.955V324.605Z" fill="#631356"/>
        <path d="M359.955 326.072H353.774V327.072H359.955V326.072Z" fill="#631356"/>
        <path d="M359.955 327.539H353.774V328.539H359.955V327.539Z" fill="#631356"/>
        <path d="M371.604 354.805H343.023V355.805H371.604V354.805Z" fill="#631356"/>
        <path d="M371.604 365.758H343.023V366.758H371.604V365.758Z" fill="#631356"/>
        <path d="M422.692 342.287H343.023V343.287H422.692V342.287Z" fill="#631356"/>
        <path d="M368.839 395.659H350.655C348.854 395.659 347.389 394.194 347.389 392.393V383.049C347.389 381.248 348.854 379.783 350.655 379.783H368.839C370.64 379.783 372.105 381.248 372.105 383.049V392.393C372.104 394.194 370.639 395.659 368.839 395.659ZM350.655 380.784C349.406 380.784 348.389 381.801 348.389 383.05V392.394C348.389 393.643 349.406 394.66 350.655 394.66H368.839C370.088 394.66 371.105 393.643 371.105 392.394V383.05C371.105 381.801 370.088 380.784 368.839 380.784H350.655Z" fill="#631356"/>
        <path d="M350.354 394.329C349.463 394.329 348.739 393.604 348.739 392.714C348.739 391.823 349.464 391.099 350.354 391.099C351.244 391.099 351.969 391.824 351.969 392.714C351.969 393.605 351.245 394.329 350.354 394.329ZM350.354 392.099C350.015 392.099 349.739 392.375 349.739 392.714C349.739 393.053 350.015 393.329 350.354 393.329C350.693 393.329 350.969 393.053 350.969 392.714C350.969 392.375 350.693 392.099 350.354 392.099Z" fill="#631356"/>
        <path d="M394.992 393.726H393.956C393.585 393.726 393.283 393.425 393.283 393.053V389.952C393.283 389.581 393.584 389.279 393.956 389.279H394.992C395.364 389.279 395.665 389.58 395.665 389.952V393.053C395.665 393.425 395.363 393.726 394.992 393.726Z" fill="#162E4C"/>
        <path d="M395.113 395.784H393.835C392.502 395.784 391.418 394.699 391.418 393.367V389.638C391.418 388.305 392.502 387.221 393.835 387.221H395.113C396.446 387.221 397.53 388.305 397.53 389.638V393.367C397.53 394.7 396.446 395.784 395.113 395.784ZM393.835 388.221C393.054 388.221 392.418 388.857 392.418 389.638V393.367C392.418 394.148 393.054 394.784 393.835 394.784H395.113C395.894 394.784 396.53 394.148 396.53 393.367V389.638C396.53 388.857 395.894 388.221 395.113 388.221H393.835Z" fill="#631356"/>
        <path d="M393.59 428.379C393.91 427.031 394.085 425.627 394.085 424.181C394.085 414.13 385.937 405.983 375.887 405.983C365.836 405.983 357.688 414.131 357.688 424.181C357.688 425.627 357.863 427.031 358.183 428.379H393.59Z" fill="#631356"/>
        <path d="M397.582 428.482L396.603 428.278C396.899 426.86 397.049 425.413 397.049 423.978C397.049 412.309 387.555 402.815 375.886 402.815C364.217 402.815 354.723 412.309 354.723 423.978C354.723 425.385 354.869 426.807 355.155 428.205L354.175 428.405C353.876 426.941 353.724 425.452 353.724 423.978C353.724 411.757 363.666 401.815 375.887 401.815C388.108 401.815 398.05 411.757 398.05 423.978C398.049 425.481 397.892 426.996 397.582 428.482Z" fill="#631356"/>
        <path d="M389.52 375.777H388.52V406.753H389.52V375.777Z" fill="#631356"/>

        <!-- for whole body Shaking -->

          <animateTransform
      attributeName="transform"
      attributeType="XML"
      type="translate"
      begin="0s"
      dur="0.9s"
      values="0 0; 0 -4; 0 0; 0 4; 0 0"
      repeatCount="indefinite"
    />
        </g>
        
        <g>
          <animateTransform
          attributeName="transform"
          attributeType="XML"
          type="rotate"
          from="0 375.5 424.9"
          to="360 375.5 424.9 "
          dur="4s"
          repeatCount="indefinite"
        />
          <path d="M375.904 440.936L375.867 440.935C375.863 440.935 375.858 440.935 375.854 440.935C375.407 440.935 374.938 440.915 374.478 440.876L374.557 439.954C374.996 439.992 375.443 440.011 375.887 440.011L375.904 440.936ZM377.331 440.873L377.251 439.951C377.697 439.912 378.147 439.853 378.587 439.775L378.748 440.686C378.28 440.77 377.803 440.832 377.331 440.873ZM373.062 440.693C372.593 440.611 372.123 440.508 371.666 440.387L371.905 439.493C372.335 439.608 372.778 439.705 373.22 439.782L373.062 440.693ZM380.141 440.378L379.901 439.484C380.334 439.368 380.766 439.231 381.186 439.078L381.503 439.947C381.058 440.11 380.6 440.255 380.141 440.378ZM370.303 439.96C369.857 439.799 369.412 439.615 368.982 439.414L369.372 438.575C369.778 438.764 370.197 438.937 370.618 439.09L370.303 439.96ZM382.821 439.4L382.429 438.562C382.835 438.372 383.236 438.162 383.623 437.938L384.087 438.739C383.677 438.976 383.251 439.199 382.821 439.4ZM367.715 438.755C367.304 438.518 366.898 438.26 366.51 437.988L367.04 437.23C367.406 437.486 367.789 437.729 368.177 437.954L367.715 438.755ZM385.289 437.97L384.758 437.213C385.123 436.956 385.483 436.68 385.826 436.391L386.421 437.099C386.058 437.405 385.677 437.698 385.289 437.97ZM365.376 437.12C365.011 436.814 364.656 436.49 364.322 436.156L364.975 435.501C365.291 435.816 365.626 436.122 365.97 436.41L365.376 437.12ZM387.473 436.134L386.819 435.479C387.133 435.165 387.44 434.83 387.73 434.485L388.438 435.08C388.131 435.446 387.807 435.8 387.473 436.134ZM363.355 435.105C363.049 434.742 362.756 434.362 362.483 433.974L363.239 433.441C363.497 433.807 363.774 434.166 364.062 434.509L363.355 435.105ZM389.308 433.948L388.55 433.417C388.808 433.049 389.052 432.667 389.276 432.28L390.077 432.743C389.84 433.153 389.581 433.558 389.308 433.948ZM361.714 432.772C361.475 432.36 361.252 431.935 361.051 431.507L361.889 431.114C362.078 431.517 362.288 431.919 362.514 432.307L361.714 432.772ZM390.737 431.476L389.898 431.085C390.088 430.678 390.261 430.259 390.414 429.839L391.283 430.156C391.122 430.6 390.938 431.044 390.737 431.476ZM360.501 430.189C360.338 429.745 360.192 429.287 360.069 428.827L360.963 428.586C361.08 429.02 361.217 429.452 361.37 429.87L360.501 430.189ZM391.713 428.793L390.819 428.555C390.934 428.123 391.031 427.68 391.109 427.239L392.021 427.399C391.938 427.866 391.835 428.335 391.713 428.793ZM359.759 427.433C359.676 426.967 359.613 426.49 359.571 426.017L360.493 425.936C360.532 426.382 360.592 426.832 360.67 427.272L359.759 427.433ZM392.205 425.983L391.283 425.904C391.321 425.457 391.341 425.004 391.341 424.557V424.489H392.266V424.548C392.266 425.03 392.245 425.509 392.205 425.983ZM359.507 424.59L359.508 424.538C359.508 424.092 359.527 423.624 359.566 423.165L360.488 423.243C360.452 423.676 360.433 424.118 360.433 424.557L359.507 424.59ZM391.277 423.144C391.236 422.696 391.176 422.247 391.097 421.809L392.008 421.645C392.092 422.11 392.156 422.586 392.199 423.06L391.277 423.144ZM360.659 421.907L359.747 421.749C359.828 421.28 359.931 420.81 360.052 420.354L360.947 420.591C360.832 421.021 360.735 421.464 360.659 421.907ZM390.802 420.494C390.684 420.061 390.546 419.629 390.392 419.211L391.26 418.891C391.423 419.334 391.57 419.792 391.695 420.252L390.802 420.494ZM361.347 419.305L360.477 418.99C360.638 418.544 360.822 418.099 361.021 417.669L361.86 418.058C361.672 418.465 361.499 418.884 361.347 419.305ZM389.871 417.969C389.681 417.566 389.47 417.165 389.244 416.777L390.043 416.31C390.283 416.721 390.507 417.146 390.708 417.574L389.871 417.969ZM362.481 416.862L361.679 416.401C361.915 415.991 362.173 415.585 362.445 415.195L363.204 415.724C362.947 416.092 362.703 416.475 362.481 416.862ZM388.514 415.644C388.256 415.279 387.979 414.921 387.688 414.578L388.395 413.98C388.702 414.343 388.996 414.723 389.269 415.109L388.514 415.644ZM364.023 414.652L363.313 414.059C363.618 413.695 363.941 413.34 364.276 413.004L364.932 413.657C364.615 413.974 364.31 414.309 364.023 414.652ZM386.775 413.589C386.456 413.273 386.12 412.967 385.778 412.681L386.371 411.97C386.734 412.273 387.089 412.596 387.427 412.931L386.775 413.589ZM365.921 412.743L365.325 412.036C365.688 411.729 366.069 411.435 366.455 411.163L366.988 411.919C366.623 412.177 366.264 412.454 365.921 412.743ZM384.706 411.864C384.338 411.608 383.954 411.365 383.567 411.143L384.028 410.341C384.438 410.577 384.844 410.834 385.235 411.105L384.706 411.864ZM368.122 411.191L367.657 410.391C368.066 410.153 368.492 409.929 368.921 409.727L369.315 410.564C368.909 410.756 368.508 410.967 368.122 411.191ZM382.37 410.524C381.962 410.335 381.542 410.163 381.123 410.012L381.436 409.141C381.88 409.301 382.325 409.483 382.758 409.684L382.37 410.524ZM370.557 410.045L370.238 409.177C370.683 409.013 371.141 408.868 371.599 408.744L371.841 409.637C371.408 409.754 370.977 409.891 370.557 410.045ZM379.837 409.612C379.404 409.498 378.961 409.402 378.521 409.326L378.677 408.414C379.144 408.494 379.614 408.596 380.073 408.717L379.837 409.612ZM373.155 409.343L372.992 408.432C373.458 408.349 373.934 408.285 374.407 408.243L374.489 409.165C374.044 409.204 373.594 409.264 373.155 409.343ZM377.183 409.156C376.754 409.12 376.318 409.102 375.886 409.102H375.835V408.177H375.886C376.343 408.177 376.805 408.196 377.259 408.234L377.183 409.156Z" fill="#162E4C"/>
          <path d="M387.136 435.81C393.352 429.594 393.352 419.516 387.136 413.301C380.92 407.085 370.842 407.085 364.626 413.301C358.41 419.516 358.41 429.594 364.626 435.81C370.842 442.026 380.92 442.026 387.136 435.81Z" fill="#000000"/>
          <path d="M375.886 440.015C367.362 440.015 360.427 433.08 360.427 424.556C360.427 416.032 367.362 409.097 375.886 409.097C384.41 409.097 391.345 416.032 391.345 424.556C391.345 433.08 384.411 440.015 375.886 440.015ZM375.886 410.097C367.913 410.097 361.427 416.583 361.427 424.556C361.427 432.529 367.913 439.015 375.886 439.015C383.859 439.015 390.345 432.529 390.345 424.556C390.345 416.584 383.859 410.097 375.886 410.097Z" fill="#486C9E"/>
          <path d="M375.887 431.329C379.628 431.329 382.66 428.297 382.66 424.556C382.66 420.815 379.628 417.783 375.887 417.783C372.146 417.783 369.114 420.815 369.114 424.556C369.114 428.297 372.146 431.329 375.887 431.329Z" fill="white"/>
          <path d="M377.752 424.556C377.752 425.586 376.917 426.422 375.886 426.422C374.856 426.422 374.02 425.587 374.02 424.556C374.02 423.525 374.855 422.69 375.886 422.69C376.917 422.691 377.752 423.526 377.752 424.556Z" fill="#162E4C"/>
          <path d="M375.887 421.354C376.367 421.354 376.756 420.965 376.756 420.485C376.756 420.005 376.367 419.616 375.887 419.616C375.407 419.616 375.018 420.005 375.018 420.485C375.018 420.965 375.407 421.354 375.887 421.354Z" fill="#476B9E"/>
          <path d="M375.887 429.497C376.367 429.497 376.756 429.108 376.756 428.628C376.756 428.148 376.367 427.759 375.887 427.759C375.407 427.759 375.018 428.148 375.018 428.628C375.018 429.108 375.407 429.497 375.887 429.497Z" fill="#476B9E"/>
          <path d="M379.958 425.426C379.478 425.426 379.089 425.037 379.089 424.557C379.089 424.077 379.478 423.688 379.958 423.688C380.438 423.688 380.827 424.077 380.827 424.557C380.827 425.037 380.438 425.426 379.958 425.426Z" fill="#476B9E"/>
          <path d="M371.815 425.426C371.335 425.426 370.946 425.037 370.946 424.557C370.946 424.077 371.335 423.688 371.815 423.688C372.295 423.688 372.684 424.077 372.684 424.557C372.684 425.037 372.296 425.426 371.815 425.426Z" fill="#476B9E"/>
          <path d="M378.765 422.547C379.245 422.547 379.634 422.158 379.634 421.678C379.634 421.198 379.245 420.809 378.765 420.809C378.285 420.809 377.896 421.198 377.896 421.678C377.896 422.158 378.285 422.547 378.765 422.547Z" fill="#476B9E"/>
          <path d="M373.622 428.05C373.282 428.39 372.732 428.39 372.393 428.05C372.054 427.711 372.054 427.16 372.393 426.821C372.733 426.481 373.283 426.481 373.622 426.821C373.962 427.16 373.962 427.71 373.622 428.05Z" fill="#476B9E"/>
          <path d="M378.151 428.05C377.811 427.711 377.811 427.16 378.151 426.821C378.49 426.481 379.041 426.481 379.38 426.821C379.719 427.16 379.719 427.711 379.38 428.05C379.04 428.389 378.49 428.389 378.151 428.05Z" fill="#476B9E"/>
          <path d="M372.393 422.292C372.054 421.953 372.054 421.402 372.393 421.063C372.733 420.724 373.283 420.724 373.622 421.063C373.962 421.403 373.962 421.953 373.622 422.292C373.283 422.632 372.733 422.632 372.393 422.292Z" fill="#476B9E"/>
          <path d="M375.886 431.176C372.236 431.176 369.266 428.206 369.266 424.556C369.266 420.906 372.236 417.936 375.886 417.936C379.536 417.936 382.506 420.906 382.506 424.556C382.507 428.207 379.537 431.176 375.886 431.176ZM375.886 418.936C372.787 418.936 370.266 421.457 370.266 424.556C370.266 427.655 372.787 430.176 375.886 430.176C378.985 430.176 381.506 427.655 381.506 424.556C381.507 421.457 378.985 418.936 375.886 418.936Z" fill="#486C9E"/>
        </g>
   
        <g>
          <path d="M284.357 428.194C286.363 419.635 281.051 411.071 272.492 409.065C263.934 407.059 255.369 412.371 253.363 420.929C251.357 429.488 256.669 438.052 265.228 440.059C273.787 442.065 282.351 436.753 284.357 428.194Z" fill="#000000"/>

          <path d="M268.883 440.936L268.846 440.935C268.842 440.935 268.837 440.935 268.833 440.935C268.386 440.935 267.917 440.915 267.457 440.876L267.536 439.954C267.975 439.992 268.422 440.011 268.866 440.011L268.883 440.936ZM270.31 440.873L270.23 439.951C270.676 439.912 271.126 439.853 271.566 439.775L271.727 440.686C271.26 440.77 270.783 440.832 270.31 440.873ZM266.041 440.693C265.572 440.611 265.102 440.508 264.646 440.387L264.884 439.493C265.315 439.608 265.757 439.705 266.199 439.782L266.041 440.693ZM273.12 440.378L272.88 439.484C273.313 439.368 273.745 439.231 274.165 439.078L274.482 439.947C274.037 440.11 273.579 440.255 273.12 440.378ZM263.283 439.96C262.837 439.799 262.392 439.615 261.962 439.414L262.352 438.575C262.758 438.764 263.178 438.937 263.598 439.09L263.283 439.96ZM275.801 439.4L275.409 438.562C275.815 438.372 276.216 438.162 276.603 437.938L277.067 438.739C276.656 438.976 276.231 439.199 275.801 439.4ZM260.694 438.755C260.283 438.518 259.877 438.26 259.489 437.988L260.019 437.23C260.385 437.486 260.768 437.729 261.156 437.954L260.694 438.755ZM278.269 437.97L277.738 437.213C278.103 436.956 278.463 436.68 278.806 436.391L279.401 437.099C279.037 437.405 278.656 437.698 278.269 437.97ZM258.356 437.12C257.991 436.814 257.636 436.49 257.301 436.156L257.954 435.501C258.27 435.816 258.605 436.122 258.949 436.41L258.356 437.12ZM280.453 436.134L279.799 435.479C280.113 435.165 280.42 434.83 280.71 434.485L281.418 435.08C281.111 435.446 280.786 435.8 280.453 436.134ZM256.334 435.105C256.028 434.742 255.735 434.362 255.462 433.974L256.218 433.441C256.475 433.807 256.752 434.166 257.041 434.509L256.334 435.105ZM282.288 433.948L281.53 433.417C281.788 433.049 282.032 432.667 282.255 432.28L283.056 432.743C282.819 433.153 282.561 433.558 282.288 433.948ZM254.693 432.772C254.453 432.36 254.231 431.935 254.03 431.507L254.868 431.114C255.057 431.517 255.267 431.919 255.493 432.307L254.693 432.772ZM283.717 431.476L282.878 431.085C283.068 430.678 283.241 430.259 283.394 429.839L284.263 430.156C284.102 430.6 283.918 431.044 283.717 431.476ZM253.481 430.189C253.318 429.745 253.172 429.287 253.049 428.827L253.943 428.586C254.06 429.02 254.197 429.452 254.35 429.87L253.481 430.189ZM284.692 428.793L283.798 428.555C283.913 428.123 284.01 427.68 284.088 427.239L285 427.399C284.918 427.866 284.814 428.335 284.692 428.793ZM252.738 427.433C252.655 426.967 252.593 426.49 252.55 426.017L253.472 425.936C253.511 426.382 253.571 426.832 253.649 427.272L252.738 427.433ZM285.184 425.983L284.262 425.904C284.3 425.457 284.32 425.004 284.32 424.557L284.319 424.489H285.244V424.548C285.246 425.03 285.225 425.509 285.184 425.983ZM252.486 424.59L252.487 424.538C252.486 424.092 252.506 423.624 252.545 423.165L253.467 423.243C253.431 423.676 253.412 424.118 253.412 424.557L252.486 424.59ZM284.257 423.144C284.216 422.696 284.156 422.247 284.077 421.809L284.988 421.645C285.072 422.11 285.136 422.586 285.179 423.06L284.257 423.144ZM253.638 421.907L252.726 421.749C252.807 421.28 252.91 420.81 253.031 420.354L253.926 420.591C253.811 421.021 253.715 421.464 253.638 421.907ZM283.782 420.494C283.664 420.061 283.526 419.629 283.372 419.211L284.24 418.891C284.404 419.334 284.55 419.792 284.675 420.252L283.782 420.494ZM254.327 419.305L253.457 418.99C253.618 418.544 253.802 418.099 254.001 417.669L254.84 418.058C254.651 418.465 254.479 418.884 254.327 419.305ZM282.851 417.969C282.661 417.566 282.45 417.165 282.223 416.777L283.022 416.31C283.262 416.721 283.486 417.146 283.687 417.574L282.851 417.969ZM255.461 416.862L254.659 416.401C254.895 415.991 255.153 415.585 255.425 415.195L256.184 415.724C255.926 416.092 255.683 416.475 255.461 416.862ZM281.493 415.644C281.235 415.279 280.958 414.921 280.668 414.578L281.375 413.98C281.682 414.343 281.976 414.723 282.249 415.109L281.493 415.644ZM257.002 414.652L256.292 414.059C256.597 413.695 256.921 413.34 257.255 413.004L257.911 413.657C257.595 413.974 257.289 414.309 257.002 414.652ZM279.755 413.589C279.436 413.273 279.1 412.967 278.757 412.681L279.35 411.97C279.713 412.273 280.068 412.596 280.406 412.931L279.755 413.589ZM258.9 412.743L258.304 412.036C258.667 411.729 259.048 411.435 259.434 411.163L259.967 411.919C259.603 412.177 259.244 412.454 258.9 412.743ZM277.685 411.864C277.317 411.608 276.933 411.365 276.546 411.143L277.007 410.341C277.417 410.577 277.823 410.834 278.214 411.105L277.685 411.864ZM261.101 411.191L260.636 410.391C261.045 410.153 261.47 409.929 261.9 409.727L262.294 410.564C261.889 410.756 261.487 410.967 261.101 411.191ZM275.349 410.524C274.941 410.335 274.521 410.163 274.102 410.012L274.416 409.141C274.86 409.301 275.305 409.483 275.738 409.684L275.349 410.524ZM263.536 410.045L263.217 409.177C263.662 409.013 264.12 408.868 264.578 408.744L264.82 409.637C264.388 409.754 263.956 409.891 263.536 410.045ZM272.816 409.612C272.383 409.498 271.94 409.402 271.5 409.326L271.656 408.414C272.123 408.494 272.593 408.596 273.052 408.717L272.816 409.612ZM266.134 409.343L265.971 408.432C266.437 408.349 266.913 408.285 267.386 408.243L267.468 409.165C267.023 409.204 266.574 409.264 266.134 409.343ZM270.163 409.156C269.734 409.12 269.298 409.102 268.866 409.102H268.815V408.177H268.866C269.323 408.177 269.785 408.196 270.24 408.234L270.163 409.156Z" fill="#162E4C"/>
        <path d="M268.866 431.329C272.607 431.329 275.639 428.297 275.639 424.556C275.639 420.815 272.607 417.783 268.866 417.783C265.125 417.783 262.093 420.815 262.093 424.556C262.093 428.297 265.125 431.329 268.866 431.329Z" fill="white"/>
        <path d="M268.866 431.176C265.216 431.176 262.246 428.206 262.246 424.556C262.246 420.906 265.216 417.936 268.866 417.936C272.516 417.936 275.486 420.906 275.486 424.556C275.486 428.207 272.516 431.176 268.866 431.176ZM268.866 418.936C265.767 418.936 263.246 421.457 263.246 424.556C263.246 427.655 265.768 430.176 268.866 430.176C271.964 430.176 274.486 427.655 274.486 424.556C274.486 421.457 271.965 418.936 268.866 418.936Z" fill="#486C9E"/>
        <path d="M268.866 440.015C260.342 440.015 253.407 433.08 253.407 424.556C253.407 416.032 260.342 409.097 268.866 409.097C277.39 409.097 284.325 416.032 284.325 424.556C284.325 433.08 277.39 440.015 268.866 440.015ZM268.866 410.097C260.893 410.097 254.407 416.583 254.407 424.556C254.407 432.529 260.893 439.015 268.866 439.015C276.839 439.015 283.325 432.529 283.325 424.556C283.325 416.584 276.839 410.097 268.866 410.097Z" fill="#486C9E"/>
        <path d="M268.866 426.422C269.897 426.422 270.732 425.587 270.732 424.556C270.732 423.525 269.897 422.69 268.866 422.69C267.835 422.69 267 423.525 267 424.556C267 425.587 267.835 426.422 268.866 426.422Z" fill="#162E4C"/>
        <path d="M269.735 420.485C269.735 420.965 269.346 421.354 268.866 421.354C268.386 421.354 267.997 420.965 267.997 420.485C267.997 420.005 268.386 419.616 268.866 419.616C269.346 419.616 269.735 420.005 269.735 420.485Z" fill="#476B9E"/>
        <path d="M269.735 428.628C269.735 429.108 269.346 429.497 268.866 429.497C268.386 429.497 267.997 429.108 267.997 428.628C267.997 428.148 268.386 427.759 268.866 427.759C269.346 427.759 269.735 428.147 269.735 428.628Z" fill="#476B9E"/>
        <path d="M272.937 425.425C273.417 425.425 273.806 425.036 273.806 424.556C273.806 424.076 273.417 423.687 272.937 423.687C272.457 423.687 272.068 424.076 272.068 424.556C272.068 425.036 272.457 425.425 272.937 425.425Z" fill="#476B9E"/>
        <path d="M264.795 425.425C265.275 425.425 265.664 425.036 265.664 424.556C265.664 424.076 265.275 423.687 264.795 423.687C264.315 423.687 263.926 424.076 263.926 424.556C263.926 425.036 264.315 425.425 264.795 425.425Z" fill="#476B9E"/>
        <path d="M272.359 422.292C272.02 422.632 271.469 422.632 271.13 422.292C270.79 421.953 270.79 421.402 271.13 421.063C271.469 420.724 272.02 420.724 272.359 421.063C272.699 421.402 272.699 421.953 272.359 422.292Z" fill="#476B9E"/>
        <path d="M266.602 428.05C266.262 428.39 265.712 428.39 265.373 428.05C265.033 427.711 265.033 427.16 265.373 426.821C265.713 426.481 266.263 426.481 266.602 426.821C266.941 427.16 266.941 427.71 266.602 428.05Z" fill="#476B9E"/>
        <path d="M271.13 428.05C270.79 427.711 270.79 427.16 271.13 426.821C271.469 426.481 272.02 426.481 272.359 426.821C272.698 427.16 272.698 427.711 272.359 428.05C272.02 428.389 271.469 428.389 271.13 428.05Z" fill="#476B9E"/>
        <path d="M265.373 422.292C265.033 421.953 265.033 421.402 265.373 421.063C265.713 420.724 266.263 420.724 266.602 421.063C266.941 421.403 266.941 421.953 266.602 422.292C266.262 422.632 265.712 422.632 265.373 422.292Z" fill="#476B9E"/>
        
        <animateTransform
        attributeName="transform"
        attributeType="XML"
        type="rotate"
        from="0 268.55 424.69"
        to="360 268.55 424.69 "
        dur="4s"
        repeatCount="indefinite"
      />

        </g>


        <g>
          
          <path d="M146.024 435.809C152.24 429.593 152.24 419.515 146.024 413.299C139.808 407.083 129.73 407.083 123.514 413.299C117.298 419.515 117.298 429.593 123.514 435.809C129.73 442.025 139.808 442.025 146.024 435.809Z" fill="#000000"/>
          
          <path d="M134.79 440.936L134.753 440.935C134.749 440.935 134.744 440.935 134.74 440.935C134.293 440.935 133.824 440.915 133.364 440.876L133.443 439.954C133.882 439.992 134.329 440.011 134.773 440.011L134.79 440.936ZM136.217 440.873L136.137 439.951C136.583 439.912 137.033 439.853 137.472 439.775L137.633 440.686C137.167 440.77 136.69 440.832 136.217 440.873ZM131.949 440.693C131.48 440.611 131.01 440.508 130.553 440.387L130.792 439.493C131.222 439.608 131.665 439.705 132.107 439.782L131.949 440.693ZM139.028 440.378L138.788 439.484C139.221 439.368 139.653 439.231 140.073 439.078L140.39 439.947C139.944 440.11 139.486 440.255 139.028 440.378ZM129.19 439.96C128.744 439.799 128.299 439.615 127.869 439.414L128.259 438.575C128.665 438.764 129.084 438.937 129.505 439.09L129.19 439.96ZM141.708 439.4L141.316 438.562C141.722 438.372 142.123 438.162 142.51 437.938L142.974 438.739C142.563 438.976 142.138 439.199 141.708 439.4ZM126.601 438.755C126.19 438.518 125.784 438.26 125.396 437.988L125.926 437.23C126.292 437.486 126.675 437.729 127.063 437.954L126.601 438.755ZM144.176 437.97L143.645 437.213C144.011 436.956 144.37 436.68 144.713 436.391L145.308 437.099C144.944 437.405 144.563 437.698 144.176 437.97ZM124.263 437.12C123.898 436.814 123.543 436.49 123.208 436.156L123.861 435.501C124.177 435.816 124.512 436.122 124.856 436.41L124.263 437.12ZM146.36 436.134L145.706 435.479C146.02 435.165 146.327 434.83 146.617 434.485L147.325 435.08C147.018 435.446 146.693 435.8 146.36 436.134ZM122.241 435.105C121.935 434.742 121.642 434.362 121.369 433.974L122.125 433.441C122.382 433.807 122.659 434.166 122.948 434.509L122.241 435.105ZM148.195 433.948L147.437 433.417C147.695 433.049 147.939 432.667 148.163 432.28L148.964 432.743C148.726 433.153 148.468 433.558 148.195 433.948ZM120.6 432.772C120.361 432.36 120.138 431.935 119.937 431.507L120.775 431.114C120.964 431.517 121.174 431.919 121.4 432.307L120.6 432.772ZM149.624 431.476L148.785 431.085C148.975 430.678 149.148 430.259 149.301 429.839L150.17 430.156C150.009 430.6 149.825 431.044 149.624 431.476ZM119.388 430.189C119.225 429.745 119.079 429.287 118.956 428.827L119.85 428.586C119.967 429.02 120.104 429.452 120.257 429.87L119.388 430.189ZM150.599 428.793L149.705 428.555C149.82 428.123 149.917 427.68 149.995 427.239L150.907 427.399C150.825 427.866 150.721 428.335 150.599 428.793ZM118.646 427.433C118.563 426.967 118.5 426.49 118.458 426.017L119.38 425.936C119.419 426.382 119.479 426.832 119.557 427.272L118.646 427.433ZM151.091 425.983L150.169 425.904C150.207 425.457 150.227 425.004 150.227 424.557V424.489H151.152L151.153 424.548C151.153 425.03 151.132 425.509 151.091 425.983ZM118.393 424.59L118.394 424.538C118.393 424.092 118.413 423.624 118.452 423.165L119.374 423.243C119.338 423.676 119.319 424.118 119.319 424.557L118.393 424.59ZM150.164 423.144C150.123 422.696 150.063 422.247 149.984 421.809L150.895 421.645C150.979 422.11 151.043 422.586 151.086 423.06L150.164 423.144ZM119.545 421.907L118.633 421.749C118.714 421.28 118.817 420.81 118.938 420.354L119.832 420.591C119.719 421.021 119.622 421.464 119.545 421.907ZM149.689 420.494C149.571 420.061 149.433 419.629 149.279 419.211L150.147 418.891C150.311 419.334 150.457 419.792 150.582 420.252L149.689 420.494ZM120.234 419.305L119.364 418.99C119.525 418.544 119.709 418.099 119.908 417.669L120.747 418.058C120.558 418.465 120.386 418.884 120.234 419.305ZM148.758 417.969C148.568 417.566 148.357 417.165 148.13 416.777L148.929 416.31C149.169 416.721 149.393 417.146 149.594 417.574L148.758 417.969ZM121.368 416.862L120.566 416.401C120.802 415.991 121.06 415.585 121.332 415.195L122.091 415.724C121.833 416.092 121.59 416.475 121.368 416.862ZM147.401 415.644C147.143 415.279 146.866 414.921 146.576 414.578L147.283 413.98C147.59 414.343 147.884 414.723 148.157 415.109L147.401 415.644ZM122.909 414.652L122.199 414.059C122.503 413.695 122.828 413.34 123.162 413.004L123.818 413.657C123.502 413.974 123.196 414.309 122.909 414.652ZM145.662 413.589C145.343 413.273 145.007 412.967 144.664 412.681L145.257 411.97C145.62 412.273 145.975 412.596 146.313 412.931L145.662 413.589ZM124.807 412.743L124.211 412.036C124.574 411.729 124.955 411.435 125.341 411.163L125.874 411.919C125.51 412.177 125.151 412.454 124.807 412.743ZM143.592 411.864C143.224 411.608 142.84 411.365 142.453 411.143L142.914 410.341C143.324 410.577 143.73 410.834 144.121 411.105L143.592 411.864ZM127.008 411.191L126.543 410.391C126.952 410.153 127.377 409.929 127.807 409.727L128.201 410.564C127.796 410.756 127.394 410.967 127.008 411.191ZM141.256 410.524C140.847 410.335 140.428 410.163 140.009 410.012L140.323 409.141C140.767 409.301 141.212 409.483 141.645 409.684L141.256 410.524ZM129.443 410.045L129.124 409.177C129.569 409.013 130.027 408.868 130.485 408.744L130.727 409.637C130.295 409.754 129.863 409.891 129.443 410.045ZM138.723 409.612C138.29 409.498 137.847 409.402 137.407 409.326L137.563 408.414C138.03 408.494 138.5 408.596 138.959 408.717L138.723 409.612ZM132.042 409.343L131.879 408.432C132.345 408.349 132.821 408.285 133.295 408.243L133.377 409.165C132.93 409.204 132.481 409.264 132.042 409.343ZM136.07 409.156C135.641 409.12 135.205 409.102 134.773 409.102H134.722V408.177H134.773C135.23 408.177 135.692 408.196 136.146 408.234L136.07 409.156Z" fill="#162E4C"/>
        <path d="M134.773 431.329C138.514 431.329 141.546 428.297 141.546 424.556C141.546 420.815 138.514 417.783 134.773 417.783C131.032 417.783 128 420.815 128 424.556C128 428.297 131.032 431.329 134.773 431.329Z" fill="white"/>
        <path d="M134.773 431.176C131.123 431.176 128.153 428.206 128.153 424.556C128.153 420.906 131.123 417.936 134.773 417.936C138.423 417.936 141.393 420.906 141.393 424.556C141.393 428.207 138.423 431.176 134.773 431.176ZM134.773 418.936C131.674 418.936 129.153 421.457 129.153 424.556C129.153 427.655 131.674 430.176 134.773 430.176C137.872 430.176 140.393 427.655 140.393 424.556C140.393 421.457 137.872 418.936 134.773 418.936Z" fill="#486C9E"/>
        <path d="M134.773 440.015C126.249 440.015 119.314 433.08 119.314 424.556C119.314 416.032 126.249 409.097 134.773 409.097C143.297 409.097 150.232 416.032 150.232 424.556C150.232 433.08 143.298 440.015 134.773 440.015ZM134.773 410.097C126.8 410.097 120.314 416.583 120.314 424.556C120.314 432.529 126.8 439.015 134.773 439.015C142.746 439.015 149.232 432.529 149.232 424.556C149.232 416.584 142.746 410.097 134.773 410.097Z" fill="#486C9E"/>
        <path d="M134.773 426.422C135.804 426.422 136.639 425.587 136.639 424.556C136.639 423.525 135.804 422.69 134.773 422.69C133.742 422.69 132.907 423.525 132.907 424.556C132.907 425.587 133.742 426.422 134.773 426.422Z" fill="#162E4C"/>
        <path d="M134.773 421.354C135.253 421.354 135.642 420.965 135.642 420.485C135.642 420.005 135.253 419.616 134.773 419.616C134.293 419.616 133.904 420.005 133.904 420.485C133.904 420.965 134.293 421.354 134.773 421.354Z" fill="#476B9E"/>
        <path d="M134.773 429.497C135.253 429.497 135.642 429.108 135.642 428.628C135.642 428.148 135.253 427.759 134.773 427.759C134.293 427.759 133.904 428.148 133.904 428.628C133.904 429.108 134.293 429.497 134.773 429.497Z" fill="#476B9E"/>
        <path d="M138.844 425.425C139.324 425.425 139.713 425.036 139.713 424.556C139.713 424.076 139.324 423.687 138.844 423.687C138.364 423.687 137.975 424.076 137.975 424.556C137.975 425.036 138.364 425.425 138.844 425.425Z" fill="#476B9E"/>
        <path d="M130.702 425.425C131.182 425.425 131.571 425.036 131.571 424.556C131.571 424.076 131.182 423.687 130.702 423.687C130.222 423.687 129.833 424.076 129.833 424.556C129.833 425.036 130.222 425.425 130.702 425.425Z" fill="#476B9E"/>
        <path d="M137.652 422.547C138.132 422.547 138.521 422.158 138.521 421.678C138.521 421.198 138.132 420.809 137.652 420.809C137.172 420.809 136.783 421.198 136.783 421.678C136.783 422.158 137.172 422.547 137.652 422.547Z" fill="#476B9E"/>
        <path d="M132.509 428.05C132.169 428.39 131.619 428.39 131.28 428.05C130.94 427.711 130.94 427.16 131.28 426.821C131.619 426.481 132.17 426.481 132.509 426.821C132.848 427.16 132.848 427.71 132.509 428.05Z" fill="#476B9E"/>
        <path d="M137.037 428.05C136.698 427.711 136.698 427.16 137.037 426.821C137.377 426.481 137.927 426.481 138.266 426.821C138.606 427.16 138.606 427.711 138.266 428.05C137.927 428.389 137.377 428.389 137.037 428.05Z" fill="#476B9E"/>
        <path d="M131.28 422.292C130.94 421.953 130.94 421.402 131.28 421.063C131.619 420.724 132.17 420.724 132.509 421.063C132.848 421.403 132.848 421.953 132.509 422.292C132.169 422.632 131.619 422.632 131.28 422.292Z" fill="#476B9E"/>
        
        <animateTransform
        attributeName="transform"
        attributeType="XML"
        type="rotate"
        from="0 135 424.5"
        to="360 135 424.5 "
        dur="4s"
        repeatCount="indefinite"
      />
      

        </g>

       <path d="M152.68 424.212H151.68C151.68 415.062 144.236 407.618 135.086 407.618H98.576C89.427 407.618 81.982 415.062 81.982 424.212H80.982C80.982 414.51 88.875 406.618 98.576 406.618H135.087C144.788 406.618 152.68 414.51 152.68 424.212Z" fill="#162E4C"/>
 
        <g>
          <path d="M315.83 435.81C322.046 429.594 322.046 419.516 315.83 413.3C309.614 407.084 299.536 407.084 293.32 413.3C287.104 419.516 287.104 429.594 293.32 435.81C299.536 442.026 309.614 442.026 315.83 435.81Z" fill="#000000"/>
          
          <path d="M304.597 440.936L304.561 440.935C304.557 440.935 304.552 440.935 304.548 440.935C304.101 440.935 303.632 440.915 303.172 440.876L303.251 439.954C303.69 439.992 304.137 440.011 304.581 440.011L304.597 440.936ZM306.024 440.873L305.944 439.951C306.39 439.912 306.84 439.853 307.28 439.775L307.441 440.686C306.973 440.77 306.497 440.832 306.024 440.873ZM301.755 440.693C301.286 440.611 300.816 440.508 300.359 440.387L300.598 439.493C301.028 439.608 301.471 439.705 301.913 439.782L301.755 440.693ZM308.834 440.378L308.594 439.484C309.027 439.368 309.459 439.231 309.879 439.078L310.196 439.947C309.751 440.11 309.293 440.255 308.834 440.378ZM298.997 439.96C298.551 439.799 298.106 439.615 297.676 439.414L298.066 438.575C298.472 438.764 298.891 438.937 299.312 439.09L298.997 439.96ZM311.514 439.4L311.122 438.562C311.528 438.372 311.929 438.162 312.316 437.938L312.78 438.739C312.37 438.976 311.944 439.199 311.514 439.4ZM296.408 438.755C295.997 438.518 295.591 438.26 295.203 437.988L295.733 437.23C296.099 437.486 296.482 437.729 296.87 437.954L296.408 438.755ZM313.982 437.97L313.451 437.213C313.817 436.956 314.176 436.68 314.519 436.391L315.115 437.099C314.751 437.405 314.37 437.698 313.982 437.97ZM294.069 437.12C293.704 436.814 293.349 436.49 293.014 436.156L293.667 435.501C293.983 435.816 294.318 436.122 294.662 436.41L294.069 437.12ZM316.166 436.134L315.512 435.479C315.826 435.165 316.133 434.83 316.423 434.485L317.131 435.08C316.825 435.446 316.5 435.8 316.166 436.134ZM292.048 435.105C291.742 434.742 291.449 434.362 291.176 433.974L291.932 433.441C292.19 433.807 292.466 434.166 292.755 434.509L292.048 435.105ZM318.002 433.948L317.244 433.417C317.502 433.049 317.746 432.667 317.97 432.28L318.771 432.743C318.533 433.153 318.275 433.558 318.002 433.948ZM290.407 432.772C290.168 432.36 289.945 431.935 289.744 431.507L290.582 431.114C290.771 431.517 290.981 431.919 291.207 432.307L290.407 432.772ZM319.431 431.476L318.592 431.085C318.782 430.678 318.955 430.259 319.108 429.839L319.977 430.156C319.815 430.6 319.632 431.044 319.431 431.476ZM289.195 430.189C289.032 429.745 288.886 429.287 288.763 428.827L289.657 428.586C289.774 429.02 289.911 429.452 290.064 429.87L289.195 430.189ZM320.406 428.793L319.512 428.555C319.627 428.123 319.724 427.68 319.802 427.239L320.714 427.399C320.632 427.866 320.528 428.335 320.406 428.793ZM288.452 427.433C288.369 426.967 288.306 426.49 288.264 426.017L289.186 425.936C289.225 426.382 289.285 426.832 289.363 427.272L288.452 427.433ZM320.898 425.983L319.976 425.904C320.014 425.457 320.034 425.004 320.034 424.557V424.489H320.959L320.96 424.548C320.96 425.03 320.939 425.509 320.898 425.983ZM288.2 424.59L288.201 424.538C288.201 424.092 288.22 423.624 288.259 423.165L289.181 423.243C289.145 423.676 289.126 424.118 289.126 424.557L288.2 424.59ZM319.97 423.144C319.929 422.696 319.869 422.247 319.79 421.809L320.701 421.645C320.785 422.11 320.849 422.586 320.892 423.06L319.97 423.144ZM289.352 421.907L288.44 421.749C288.521 421.28 288.624 420.81 288.745 420.354L289.64 420.591C289.525 421.021 289.429 421.464 289.352 421.907ZM319.496 420.494C319.378 420.061 319.24 419.629 319.086 419.211L319.954 418.891C320.117 419.334 320.264 419.792 320.389 420.252L319.496 420.494ZM290.04 419.305L289.17 418.99C289.331 418.544 289.515 418.099 289.714 417.669L290.553 418.058C290.365 418.465 290.193 418.884 290.04 419.305ZM318.564 417.969C318.374 417.566 318.163 417.165 317.936 416.777L318.735 416.31C318.975 416.721 319.199 417.146 319.401 417.574L318.564 417.969ZM291.174 416.862L290.372 416.401C290.608 415.991 290.866 415.585 291.138 415.195L291.897 415.724C291.64 416.092 291.397 416.475 291.174 416.862ZM317.207 415.644C316.949 415.279 316.672 414.921 316.381 414.578L317.088 413.98C317.395 414.343 317.689 414.723 317.962 415.109L317.207 415.644ZM292.716 414.652L292.006 414.059C292.31 413.695 292.634 413.34 292.969 413.004L293.625 413.657C293.309 413.974 293.003 414.309 292.716 414.652ZM315.468 413.589C315.149 413.273 314.813 412.967 314.471 412.681L315.064 411.97C315.427 412.273 315.782 412.596 316.12 412.931L315.468 413.589ZM294.614 412.743L294.018 412.036C294.381 411.729 294.762 411.435 295.148 411.163L295.681 411.919C295.316 412.177 294.958 412.454 294.614 412.743ZM313.399 411.864C313.031 411.608 312.647 411.365 312.26 411.143L312.721 410.341C313.131 410.577 313.537 410.834 313.928 411.105L313.399 411.864ZM296.815 411.191L296.35 410.391C296.759 410.153 297.185 409.929 297.614 409.727L298.008 410.564C297.602 410.756 297.201 410.967 296.815 411.191ZM311.063 410.524C310.655 410.335 310.235 410.163 309.816 410.012L310.129 409.141C310.573 409.301 311.018 409.483 311.451 409.684L311.063 410.524ZM299.25 410.045L298.931 409.177C299.376 409.013 299.834 408.868 300.292 408.744L300.534 409.637C300.102 409.754 299.67 409.891 299.25 410.045ZM308.53 409.612C308.097 409.498 307.654 409.402 307.214 409.326L307.37 408.414C307.837 408.494 308.307 408.596 308.766 408.717L308.53 409.612ZM301.848 409.343L301.685 408.432C302.151 408.349 302.627 408.285 303.1 408.243L303.182 409.165C302.737 409.204 302.288 409.264 301.848 409.343ZM305.876 409.156C305.447 409.12 305.011 409.102 304.579 409.102H304.528V408.177H304.579C305.036 408.177 305.498 408.196 305.952 408.234L305.876 409.156Z" fill="#162E4C">
        </path>
        <path d="M304.58 440.015C296.055 440.015 289.121 433.08 289.121 424.556C289.121 416.032 296.056 409.097 304.58 409.097C313.104 409.097 320.039 416.032 320.039 424.556C320.039 433.08 313.104 440.015 304.58 440.015ZM304.58 410.097C296.607 410.097 290.121 416.583 290.121 424.556C290.121 432.529 296.607 439.015 304.58 439.015C312.553 439.015 319.039 432.529 319.039 424.556C319.039 416.584 312.552 410.097 304.58 410.097Z" fill="#486C9E"/>
        <path d="M304.58 431.329C308.321 431.329 311.353 428.297 311.353 424.556C311.353 420.815 308.321 417.783 304.58 417.783C300.839 417.783 297.807 420.815 297.807 424.556C297.807 428.297 300.839 431.329 304.58 431.329Z" fill="white"/>
        <path d="M306.445 424.556C306.445 425.586 305.61 426.422 304.579 426.422C303.549 426.422 302.713 425.587 302.713 424.556C302.713 423.525 303.548 422.69 304.579 422.69C305.61 422.691 306.445 423.526 306.445 424.556Z" fill="#162E4C"/>
        <path d="M304.58 421.354C305.06 421.354 305.449 420.965 305.449 420.485C305.449 420.005 305.06 419.616 304.58 419.616C304.1 419.616 303.711 420.005 303.711 420.485C303.711 420.965 304.1 421.354 304.58 421.354Z" fill="#476B9E"/>
        <path d="M304.58 429.497C305.06 429.497 305.449 429.108 305.449 428.628C305.449 428.148 305.06 427.759 304.58 427.759C304.1 427.759 303.711 428.148 303.711 428.628C303.711 429.108 304.1 429.497 304.58 429.497Z" fill="#476B9E"/>
        <path d="M308.651 425.426C308.171 425.426 307.782 425.037 307.782 424.557C307.782 424.077 308.171 423.688 308.651 423.688C309.131 423.688 309.52 424.077 309.52 424.557C309.52 425.037 309.131 425.426 308.651 425.426Z" fill="#476B9E"/>
        <path d="M300.509 425.426C300.029 425.426 299.64 425.037 299.64 424.557C299.64 424.077 300.029 423.688 300.509 423.688C300.989 423.688 301.378 424.077 301.378 424.557C301.378 425.037 300.989 425.426 300.509 425.426Z" fill="#476B9E"/>
        <path d="M307.459 422.547C307.939 422.547 308.328 422.158 308.328 421.678C308.328 421.198 307.939 420.809 307.459 420.809C306.979 420.809 306.59 421.198 306.59 421.678C306.59 422.158 306.979 422.547 307.459 422.547Z" fill="#476B9E"/>
        <path d="M302.316 428.05C301.976 428.39 301.426 428.39 301.087 428.05C300.748 427.711 300.748 427.16 301.087 426.821C301.427 426.481 301.977 426.481 302.316 426.821C302.655 427.16 302.655 427.71 302.316 428.05Z" fill="#476B9E"/>
        <path d="M306.844 428.05C306.504 427.711 306.504 427.16 306.844 426.821C307.183 426.481 307.734 426.481 308.073 426.821C308.412 427.16 308.412 427.711 308.073 428.05C307.734 428.389 307.183 428.389 306.844 428.05Z" fill="#476B9E"/>
        <path d="M301.086 422.292C300.747 421.953 300.747 421.402 301.086 421.063C301.426 420.724 301.976 420.724 302.315 421.063C302.655 421.403 302.655 421.953 302.315 422.292C301.976 422.632 301.426 422.632 301.086 422.292Z" fill="#476B9E"/>
        


      <animateTransform
      attributeName="transform"
      attributeType="XML"
      type="rotate"
      from="0 304.55 424.5"
      to="360 304.55 424.5 "
      dur="4s"
      repeatCount="indefinite"
    />
      
      
      </g>
        <path d="M322.488 424.212H321.488C321.488 415.062 314.044 407.618 304.893 407.618H268.382C259.233 407.618 251.788 415.062 251.788 424.212H250.788C250.788 414.51 258.681 406.618 268.382 406.618H304.893C314.595 406.618 322.488 414.51 322.488 424.212Z" fill="#162E4C"/>
        <path d="M471.443 440.436H28.557V441.436H471.443V440.436Z" fill="#FFFFFF"/>

        <g>
          <path d="M114.549 428.192C116.556 419.633 111.244 411.069 102.685 409.063C94.1263 407.057 85.5619 412.369 83.5559 420.927C81.5499 429.486 86.8618 438.05 95.4204 440.056C103.979 442.062 112.543 436.75 114.549 428.192Z" fill="#000000"/>

<path d="M99.076 440.936L99.039 440.935C99.035 440.935 99.03 440.935 99.026 440.935C98.579 440.935 98.11 440.915 97.65 440.876L97.729 439.954C98.168 439.992 98.615 440.011 99.059 440.011L99.076 440.936ZM100.503 440.873L100.423 439.951C100.869 439.912 101.319 439.853 101.758 439.775L101.919 440.686C101.453 440.77 100.976 440.832 100.503 440.873ZM96.235 440.693C95.766 440.611 95.296 440.508 94.839 440.387L95.078 439.493C95.509 439.608 95.951 439.705 96.393 439.782L96.235 440.693ZM103.314 440.378L103.074 439.484C103.507 439.368 103.939 439.231 104.359 439.078L104.676 439.947C104.23 440.11 103.772 440.255 103.314 440.378ZM93.476 439.96C93.03 439.799 92.586 439.615 92.155 439.414L92.545 438.575C92.951 438.764 93.37 438.937 93.791 439.09L93.476 439.96ZM105.994 439.4L105.602 438.562C106.008 438.372 106.409 438.162 106.796 437.938L107.259 438.739C106.849 438.976 106.424 439.199 105.994 439.4ZM90.887 438.755C90.476 438.518 90.07 438.26 89.682 437.988L90.212 437.23C90.578 437.486 90.961 437.729 91.349 437.954L90.887 438.755ZM108.462 437.97L107.931 437.213C108.297 436.956 108.656 436.68 108.999 436.391L109.595 437.099C109.23 437.405 108.849 437.698 108.462 437.97ZM88.549 437.12C88.184 436.814 87.829 436.49 87.495 436.156L88.148 435.501C88.464 435.816 88.799 436.122 89.143 436.41L88.549 437.12ZM110.646 436.134L109.992 435.479C110.306 435.165 110.613 434.83 110.903 434.485L111.611 435.08C111.304 435.446 110.979 435.8 110.646 436.134ZM86.527 435.105C86.221 434.742 85.928 434.362 85.655 433.974L86.411 433.441C86.668 433.807 86.945 434.166 87.234 434.509L86.527 435.105ZM112.481 433.948L111.723 433.417C111.981 433.049 112.225 432.667 112.449 432.28L113.25 432.743C113.012 433.153 112.754 433.558 112.481 433.948ZM84.886 432.772C84.647 432.36 84.424 431.935 84.223 431.507L85.061 431.114C85.25 431.517 85.46 431.919 85.686 432.307L84.886 432.772ZM113.91 431.476L113.071 431.085C113.261 430.678 113.434 430.259 113.587 429.839L114.456 430.156C114.295 430.6 114.111 431.044 113.91 431.476ZM83.674 430.189C83.511 429.745 83.366 429.287 83.242 428.827L84.136 428.586C84.253 429.02 84.39 429.452 84.543 429.87L83.674 430.189ZM114.885 428.793L113.991 428.555C114.106 428.123 114.203 427.68 114.281 427.239L115.193 427.399C115.111 427.866 115.007 428.335 114.885 428.793ZM82.932 427.433C82.849 426.967 82.786 426.49 82.744 426.017L83.666 425.936C83.705 426.382 83.765 426.832 83.843 427.272L82.932 427.433ZM115.377 425.983L114.455 425.904C114.493 425.457 114.513 425.004 114.513 424.557V424.489H115.438V424.548C115.439 425.03 115.418 425.509 115.377 425.983ZM82.679 424.59L82.68 424.538C82.68 424.092 82.699 423.624 82.738 423.165L83.66 423.243C83.624 423.676 83.605 424.118 83.605 424.557L82.679 424.59ZM114.45 423.144C114.409 422.696 114.349 422.247 114.27 421.809L115.181 421.645C115.264 422.11 115.329 422.586 115.372 423.06L114.45 423.144ZM83.831 421.907L82.919 421.749C83 421.28 83.103 420.81 83.224 420.354L84.119 420.591C84.005 421.021 83.908 421.464 83.831 421.907ZM113.975 420.494C113.857 420.061 113.719 419.629 113.565 419.211L114.433 418.891C114.597 419.334 114.743 419.792 114.868 420.252L113.975 420.494ZM84.52 419.305L83.65 418.99C83.811 418.544 83.995 418.099 84.194 417.669L85.034 418.058C84.845 418.465 84.672 418.884 84.52 419.305ZM113.044 417.969C112.854 417.566 112.643 417.165 112.416 416.777L113.215 416.31C113.455 416.721 113.679 417.146 113.881 417.574L113.044 417.969ZM85.654 416.862L84.852 416.401C85.088 415.991 85.346 415.585 85.618 415.195L86.377 415.724C86.12 416.092 85.876 416.475 85.654 416.862ZM111.687 415.644C111.429 415.279 111.152 414.921 110.862 414.578L111.569 413.98C111.876 414.343 112.17 414.723 112.443 415.109L111.687 415.644ZM87.195 414.652L86.485 414.059C86.789 413.695 87.113 413.34 87.448 413.004L88.104 413.657C87.788 413.974 87.483 414.309 87.195 414.652ZM109.948 413.589C109.629 413.273 109.293 412.967 108.95 412.681L109.543 411.97C109.906 412.273 110.261 412.596 110.599 412.931L109.948 413.589ZM89.094 412.743L88.498 412.036C88.861 411.729 89.242 411.435 89.628 411.163L90.161 411.919C89.796 412.177 89.437 412.454 89.094 412.743ZM107.879 411.864C107.511 411.608 107.127 411.365 106.74 411.143L107.201 410.341C107.611 410.577 108.017 410.834 108.408 411.105L107.879 411.864ZM91.294 411.191L90.829 410.391C91.238 410.153 91.664 409.929 92.093 409.727L92.487 410.564C92.082 410.756 91.681 410.967 91.294 411.191ZM105.542 410.524C105.134 410.335 104.714 410.163 104.295 410.012L104.609 409.141C105.053 409.301 105.498 409.483 105.931 409.684L105.542 410.524ZM93.729 410.045L93.41 409.177C93.855 409.013 94.313 408.868 94.771 408.744L95.013 409.637C94.581 409.754 94.149 409.891 93.729 410.045ZM103.009 409.612C102.576 409.498 102.134 409.402 101.693 409.326L101.849 408.414C102.316 408.494 102.786 408.596 103.245 408.717L103.009 409.612ZM96.328 409.343L96.165 408.432C96.631 408.349 97.107 408.285 97.58 408.243L97.662 409.165C97.216 409.204 96.767 409.264 96.328 409.343ZM100.356 409.156C99.927 409.12 99.491 409.102 99.059 409.102H99.008V408.177H99.059C99.516 408.177 99.978 408.196 100.433 408.234L100.356 409.156Z" fill="#162E4C"/>
        <path d="M99.059 431.329C102.8 431.329 105.832 428.297 105.832 424.556C105.832 420.815 102.8 417.783 99.059 417.783C95.3184 417.783 92.286 420.815 92.286 424.556C92.286 428.297 95.3184 431.329 99.059 431.329Z" fill="white"/>
        <path d="M99.059 431.176C95.409 431.176 92.439 428.206 92.439 424.556C92.439 420.906 95.409 417.936 99.059 417.936C102.709 417.936 105.679 420.906 105.679 424.556C105.679 428.207 102.71 431.176 99.059 431.176ZM99.059 418.936C95.96 418.936 93.439 421.457 93.439 424.556C93.439 427.655 95.96 430.176 99.059 430.176C102.158 430.176 104.679 427.655 104.679 424.556C104.679 421.457 102.158 418.936 99.059 418.936Z" fill="#486C9E"/>
        <path d="M99.059 440.015C90.535 440.015 83.6 433.08 83.6 424.556C83.6 416.032 90.535 409.097 99.059 409.097C107.583 409.097 114.518 416.032 114.518 424.556C114.518 433.08 107.584 440.015 99.059 440.015ZM99.059 410.097C91.086 410.097 84.6 416.583 84.6 424.556C84.6 432.529 91.086 439.015 99.059 439.015C107.032 439.015 113.518 432.529 113.518 424.556C113.518 416.584 107.032 410.097 99.059 410.097Z" fill="#486C9E"/>
        <path d="M100.925 424.556C100.925 425.586 100.09 426.422 99.059 426.422C98.029 426.422 97.194 425.587 97.194 424.556C97.194 423.525 98.029 422.69 99.059 422.69C100.09 422.691 100.925 423.526 100.925 424.556Z" fill="#162E4C"/>
        <path d="M99.059 421.354C99.5389 421.354 99.928 420.965 99.928 420.485C99.928 420.005 99.5389 419.616 99.059 419.616C98.5791 419.616 98.19 420.005 98.19 420.485C98.19 420.965 98.5791 421.354 99.059 421.354Z" fill="#476B9E"/>
        <path d="M99.059 429.497C99.5389 429.497 99.928 429.108 99.928 428.628C99.928 428.148 99.5389 427.759 99.059 427.759C98.5791 427.759 98.19 428.148 98.19 428.628C98.19 429.108 98.5791 429.497 99.059 429.497Z" fill="#476B9E"/>
        <path d="M103.13 425.425C103.61 425.425 103.999 425.036 103.999 424.556C103.999 424.076 103.61 423.687 103.13 423.687C102.65 423.687 102.261 424.076 102.261 424.556C102.261 425.036 102.65 425.425 103.13 425.425Z" fill="#476B9E"/>
        <path d="M94.988 425.425C95.4679 425.425 95.857 425.036 95.857 424.556C95.857 424.076 95.4679 423.687 94.988 423.687C94.5081 423.687 94.119 424.076 94.119 424.556C94.119 425.036 94.5081 425.425 94.988 425.425Z" fill="#476B9E"/>
        <path d="M102.553 422.292C102.213 422.632 101.663 422.632 101.324 422.292C100.984 421.953 100.984 421.402 101.324 421.063C101.664 420.724 102.214 420.724 102.553 421.063C102.892 421.402 102.892 421.953 102.553 422.292Z" fill="#476B9E"/>
        <path d="M96.795 428.05C96.456 428.39 95.905 428.39 95.566 428.05C95.226 427.711 95.226 427.16 95.566 426.821C95.906 426.481 96.456 426.481 96.795 426.821C97.135 427.16 97.135 427.71 96.795 428.05Z" fill="#476B9E"/>
        <path d="M101.323 428.05C100.983 427.711 100.983 427.16 101.323 426.821C101.663 426.481 102.213 426.481 102.552 426.821C102.891 427.16 102.891 427.711 102.552 428.05C102.213 428.389 101.663 428.389 101.323 428.05Z" fill="#476B9E"/>
        <path d="M95.566 422.292C95.226 421.953 95.226 421.402 95.566 421.063C95.906 420.724 96.456 420.724 96.795 421.063C97.135 421.403 97.135 421.953 96.795 422.292C96.456 422.632 95.905 422.632 95.566 422.292Z" fill="#476B9E"/>
        
        <animateTransform
        attributeName="transform"
        attributeType="XML"
        type="rotate" 
        from="0 98.9 424.5"
        to="360 98.9 424.5"
        dur="4s"
        repeatCount="indefinite"
      />
        </g>
        
        <defs>
        <clipPath id="clip0_19_12">
        <rect width="500" height="500" fill="white"/>
        </clipPath>
        </defs>
        
        </svg>